<svg id="Icon_material-check-box-outline-blank" data-name="Icon material-check-box-outline-blank" xmlns="http://www.w3.org/2000/svg" width="16" height="16" viewBox="0 0 16 16">
  <path id="Icon_material-check-box-outline-blank-2" data-name="Icon material-check-box-outline-blank" d="M18.722,6.278V18.722H6.278V6.278H18.722m0-1.778H6.278A1.783,1.783,0,0,0,4.5,6.278V18.722A1.783,1.783,0,0,0,6.278,20.5H18.722A1.783,1.783,0,0,0,20.5,18.722V6.278A1.783,1.783,0,0,0,18.722,4.5Z" transform="translate(-4.5 -4.5)" fill="#bebebe"/>
  <path id="Icon_material-check-box" data-name="Icon material-check-box" d="M18.722,4.5H6.278A1.777,1.777,0,0,0,4.5,6.278V18.722A1.777,1.777,0,0,0,6.278,20.5H18.722A1.777,1.777,0,0,0,20.5,18.722V6.278A1.777,1.777,0,0,0,18.722,4.5Zm-8,12.444L6.278,12.5l1.253-1.253,3.191,3.182,6.747-6.747,1.253,1.262Z" transform="translate(-4.5 -4.5)" fill="#fc0"/>
</svg>
