<svg xmlns="http://www.w3.org/2000/svg" width="107.878" height="36.335" viewBox="0 0 107.878 36.335">
  <g id="Group_1" data-name="Group 1" transform="translate(-31.191 -109.983)">
    <path id="Path_5" data-name="Path 5" d="M45.878,121.646a18.991,18.991,0,0,0,13.139,11.01,33.3,33.3,0,0,0,7.488.977h.085a3.257,3.257,0,0,0,2.288-.935,3.38,3.38,0,0,0,1.012-2.408V113.959a1.417,1.417,0,0,0-1.417-1.416H66.489a1.416,1.416,0,0,0-1.416,1.416v5.372H50.35a18.667,18.667,0,0,1-1.293-5.1,1.412,1.412,0,0,0-1.378-1.259l-1.1-.023-.884-.023a1.414,1.414,0,0,0-1.447,1.544A25.81,25.81,0,0,0,45.878,121.646Zm19.2,2.218v4.88a26.446,26.446,0,0,1-4.81-.74,14.478,14.478,0,0,1-7.051-4.14Z" transform="translate(-7.126 -1.398)" fill="#ffd52c"/>
    <path id="Path_6" data-name="Path 6" d="M63.879,158.817h-8.8a25.537,25.537,0,0,1-19.69-9.181,1.642,1.642,0,0,0-2.17-.328l-.731.481-.55.36a1.639,1.639,0,0,0-.377,2.408,30.382,30.382,0,0,0,23.518,11.077h8.8a1.642,1.642,0,0,0,1.642-1.642v-1.533A1.642,1.642,0,0,0,63.879,158.817Z" transform="translate(0 -21.324)" fill="#ffd52c"/>
    <path id="Path_7" data-name="Path 7" d="M147.12,109.983h-1.983a1.417,1.417,0,0,0-1.417,1.416v22.689h-7.636c-2.467,0-10.149-.643-12.128-8.368h10.71a3.826,3.826,0,0,0,3.826-3.826v-6.615a3.826,3.826,0,0,0-3.826-3.826h-12.1a1.417,1.417,0,0,0-1.417,1.417v1.983a1.417,1.417,0,0,0,1.417,1.416h11.107V120.9H121.69a2.918,2.918,0,0,0-2.818,2.166,2.988,2.988,0,0,0-.071,1.114,17.88,17.88,0,0,0,3.129,8.25c2.134,2.951,6.321,6.47,14.153,6.47h7.636v3.589a1.417,1.417,0,0,0,1.417,1.416h1.983a1.417,1.417,0,0,0,1.416-1.416V111.4A1.417,1.417,0,0,0,147.12,109.983Z" transform="translate(-47.824)" fill="#ffd52c"/>
    <path id="Path_8" data-name="Path 8" d="M213.028,128.621h12.621v.483a1.417,1.417,0,0,0,1.416,1.416h1.984a1.417,1.417,0,0,0,1.416-1.416V111.4a1.417,1.417,0,0,0-1.416-1.416h-1.984a1.417,1.417,0,0,0-1.416,1.416V123.8H213.028c-6.157,0-7.871-4.147-8.123-8.04h11.974a1.416,1.416,0,0,0,1.416-1.417v-1.983a1.416,1.416,0,0,0-1.416-1.416H203.866a3.835,3.835,0,0,0-2.449.842,3.715,3.715,0,0,0-1.364,2.887C200.058,121.419,203.469,128.621,213.028,128.621Z" transform="translate(-92.199)" fill="#ffd52c"/>
    <path id="Path_9" data-name="Path 9" d="M228.29,160.952h-7.135a1.7,1.7,0,0,0-1.7,1.7v1.416a1.7,1.7,0,0,0,1.7,1.7h7.135a1.783,1.783,0,0,1,1.766,2.016,1.823,1.823,0,0,1-1.827,1.547h-5.664c-7.161,0-10.216-3.573-11.344-5.5a1.691,1.691,0,0,0-1.973-.75l-.891.282-.47.144a1.7,1.7,0,0,0-.994,2.442c1.608,2.924,5.867,8.2,15.673,8.2h6.392V174.1a6.679,6.679,0,0,0,5.926-6.291A6.605,6.605,0,0,0,228.29,160.952Z" transform="translate(-95.818 -27.829)" fill="#ffd52c"/>
  </g>
</svg>
